{
  "accessors": [
    {
      "bufferView": 2,
      "componentType": 5126,
      "count": 15386,
      "max": [
        289.2237548828125,
        50.1974983215332,
        -13.642144203186035
      ],
      "min": [
        -289.3704528808594,
        -124.60545349121094,
        -497.7843322753906
      ],
      "type": "VEC3"
    },
    {
      "bufferView": 2,
      "byteOffset": 184632,
      "componentType": 5126,
      "count": 15386,
      "max": [
        1.0,
        0.999983549118042,
        0.9999841451644897
      ],
      "min": [
        -1.0,
        -0.9999983310699463,
        -0.9999850988388062
      ],
      "type": "VEC3"
    },
    {
      "bufferView": 3,
      "componentType": 5126,
      "count": 15386,
      "max": [
        1.0,
        0.9999851584434509,
        0.9999920725822449,
        1.0
      ],
      "min": [
        -1.0,
        -0.9999884366989136,
        -0.9999921321868896,
        -1.0
      ],
      "type": "VEC4"
    },
    {
      "bufferView": 1,
      "componentType": 5126,
      "count": 15386,
      "max": [
        0.9990788102149963,
        0.9980232119560242
      ],
      "min": [
        0.000921175698749721,
        0.000921175698749721
      ],
      "type": "VEC2"
    },
    {
      "bufferView": 0,
      "componentType": 5125,
      "count": 51342,
      "type": "SCALAR"
    },
    {
      "bufferView": 2,
      "byteOffset": 369264,
      "componentType": 5126,
      "count": 142,
      "max": [
        23.04079818725586,
        7.482743263244629,
        -187.477294921875
      ],
      "min": [
        -23.04079818725586,
        -32.96410369873047,
        -307.2088317871094
      ],
      "type": "VEC3"
    },
    {
      "bufferView": 2,
      "byteOffset": 370968,
      "componentType": 5126,
      "count": 142,
      "max": [
        0.9980500340461731,
        0.9898043870925903,
        0.35008305311203003
      ],
      "min": [
        -0.9980500340461731,
        0.03375409543514252,
        -0.27687567472457886
      ],
      "type": "VEC3"
    },
    {
      "bufferView": 1,
      "byteOffset": 123088,
      "componentType": 5126,
      "count": 142,
      "max": [
        0.8710278272628784,
        0.902055561542511
      ],
      "min": [
        0.0688149556517601,
        0.1268443912267685
      ],
      "type": "VEC2"
    },
    {
      "bufferView": 0,
      "byteOffset": 205368,
      "componentType": 5125,
      "count": 426,
      "type": "SCALAR"
    }
  ],
  "asset": {
    "extras": {
      "author": "Javier Martín Hidalgo (https://sketchfab.com/Jj.Mmhh)",
      "license": "CC-BY-4.0 (http://creativecommons.org/licenses/by/4.0/)",
      "source": "https://sketchfab.com/3d-models/curtiss-p40-airplane-341cc6469d804f0594b0a977272e4b3a",
      "title": "Curtiss P40 Airplane"
    },
    "generator": "Sketchfab-12.65.0",
    "version": "2.0"
  },
  "bufferViews": [
    {
      "buffer": 0,
      "byteLength": 207072,
      "name": "floatBufferViews",
      "target": 34963
    },
    {
      "buffer": 0,
      "byteLength": 124224,
      "byteOffset": 207072,
      "byteStride": 8,
      "name": "floatBufferViews",
      "target": 34962
    },
    {
      "buffer": 0,
      "byteLength": 372672,
      "byteOffset": 331296,
      "byteStride": 12,
      "name": "floatBufferViews",
      "target": 34962
    },
    {
      "buffer": 0,
      "byteLength": 246176,
      "byteOffset": 703968,
      "byteStride": 16,
      "name": "floatBufferViews",
      "target": 34962
    }
  ],
  "buffers": [
    {
      "byteLength": 950144,
      "uri": "scene.bin"
    }
  ],
  "images": [
    {
      "uri": "textures/curtissP40_baseColor.jpeg"
    },
    {
      "uri": "textures/curtissP40_metallicRoughness.png"
    },
    {
      "uri": "textures/curtissP40_normal.png"
    },
    {
      "uri": "textures/cristalCurtiss_baseColor.jpeg"
    },
    {
      "uri": "textures/cristalCurtiss_metallicRoughness.png"
    }
  ],
  "materials": [
    {
      "doubleSided": true,
      "name": "curtissP40",
      "normalTexture": {
        "index": 2
      },
      "pbrMetallicRoughness": {
        "baseColorTexture": {
          "index": 0
        },
        "metallicRoughnessTexture": {
          "index": 1
        }
      }
    },
    {
      "doubleSided": true,
      "name": "cristalCurtiss",
      "pbrMetallicRoughness": {
        "baseColorTexture": {
          "index": 3
        },
        "metallicRoughnessTexture": {
          "index": 4
        }
      }
    }
  ],
  "meshes": [
    {
      "name": "Circle_curtissP40_0",
      "primitives": [
        {
          "attributes": {
            "NORMAL": 1,
            "POSITION": 0,
            "TANGENT": 2,
            "TEXCOORD_0": 3
          },
          "indices": 4,
          "material": 0,
          "mode": 4
        }
      ]
    },
    {
      "name": "Circle_cristalCurtiss_0",
      "primitives": [
        {
          "attributes": {
            "NORMAL": 6,
            "POSITION": 5,
            "TEXCOORD_0": 7
          },
          "indices": 8,
          "material": 1,
          "mode": 4
        }
      ]
    }
  ],
  "nodes": [
    {
      "children": [
        1
      ],
      "matrix": [
        1.0,
        0.0,
        0.0,
        0.0,
        0.0,
        2.220446049250313e-16,
        -1.0,
        0.0,
        0.0,
        1.0,
        2.220446049250313e-16,
        0.0,
        0.0,
        0.0,
        0.0,
        1.0
      ],
      "name": "Sketchfab_model"
    },
    {
      "children": [
        2
      ],
      "matrix": [
        1.0,
        0.0,
        0.0,
        0.0,
        0.0,
        0.0,
        1.0,
        0.0,
        0.0,
        -1.0,
        0.0,
        0.0,
        0.0,
        0.0,
        0.0,
        1.0
      ],
      "name": "014c54eebbbc42c7abde2f750ee981e4.fbx"
    },
    {
      "children": [
        3
      ],
      "name": "RootNode"
    },
    {
      "children": [
        4,
        5
      ],
      "matrix": [
        1.0,
        0.0,
        0.0,
        0.0,
        0.0,
        1.0,
        0.0,
        0.0,
        0.0,
        0.0,
        1.0,
        0.0,
        0.07333755493164063,
        125.26007080078125,
        -139.69174194335938,
        1.0
      ],
      "name": "Circle"
    },
    {
      "mesh": 0,
      "name": "Circle_curtissP40_0"
    },
    {
      "mesh": 1,
      "name": "Circle_cristalCurtiss_0"
    }
  ],
  "samplers": [
    {
      "magFilter": 9729,
      "minFilter": 9987,
      "wrapS": 10497,
      "wrapT": 10497
    }
  ],
  "scene": 0,
  "scenes": [
    {
      "name": "Sketchfab_Scene",
      "nodes": [
        0
      ]
    }
  ],
  "textures": [
    {
      "sampler": 0,
      "source": 0
    },
    {
      "sampler": 0,
      "source": 1
    },
    {
      "sampler": 0,
      "source": 2
    },
    {
      "sampler": 0,
      "source": 3
    },
    {
      "sampler": 0,
      "source": 4
    }
  ]
}
